# xmcd CD database file
#
# Track frame offsets:
#	150
#	19540
#	37100
#	53557
#	77130
#	97055
#	120354
#	127362
#	141177
#	155617
#	170142
#
# Disc length: 2784 seconds
#
# Revision: 2
# Processed by: cddbd v1.5.1PL2 Copyright (c) Steve Scherf et al.
# Submitted via: CDex 1.51
#
DISCID=970ade0b
DTITLE=Transpunk - Jazzmonster
DYEAR=1999
DGENRE=Blues
TTITLE0=Phantom
TTITLE1=My own mistake?
TTITLE2=Les liquides de mon corps
TTITLE3=One on the dead
TTITLE4=Visit the scarecrow
TTITLE5=Spread the sickness
TTITLE6=King of the wacko's
TTITLE7=Spunk
TTITLE8=Regime
TTITLE9=Clear planet
TTITLE10=K.D.R.
EXTD=YEAR: 1999
EXTT0=
EXTT1=
EXTT2=
EXTT3=
EXTT4=
EXTT5=
EXTT6=
EXTT7=
EXTT8=
EXTT9=
EXTT10=
PLAYORDER=
